<?xml version="1.0" encoding="utf-8"?>
<!-- Generator: Adobe Illustrator 23.0.1, SVG Export Plug-In . SVG Version: 6.00 Build 0)  -->
<svg version="1.1" id="Layer_1" xmlns="http://www.w3.org/2000/svg" xmlns:xlink="http://www.w3.org/1999/xlink" x="0px" y="0px"
	 width="100px" height="100px" viewBox="0 0 100 100" style="enable-background:new 0 0 100 100;" xml:space="preserve">
<g>
	<g>
		<path style="fill:#076391;" d="M89.9,45L76.2,29.4c-0.3-0.3-0.7-0.5-1.2-0.5H26.1c-0.5,0-0.9,0.2-1.2,0.5L11.2,45
			c-0.4,0.5-0.5,1.1-0.3,1.7c0.1,0.2,0.2,0.4,0.4,0.5c0,0,0,0,0,0l38,42.9c0.3,0.3,0.7,0.5,1.2,0.5c0.4,0,0.9-0.2,1.2-0.5l38-42.9
			c0,0,0,0,0,0c0.2-0.1,0.3-0.3,0.4-0.5C90.4,46.1,90.3,45.4,89.9,45z M72.2,32.1l-7,11.3L54,32.1H72.2z M61.9,44.4H39.2L50.6,33
			L61.9,44.4z M47.1,32.1L35.9,43.3l-7-11.3H47.1z M25.9,33.1l7,11.3h-17L25.9,33.1z M15.9,47.6h18.6L47.3,83L15.9,47.6z M53.8,83
			l9-24.3c0.3-0.8-0.1-1.7-0.9-2c-0.8-0.3-1.7,0.1-2,0.9l-9.3,25.1L37.8,47.6h47.4L53.8,83z M68.3,44.4l7-11.3l10,11.3L68.3,44.4
			L68.3,44.4z"/>
	</g>
</g>
<g>
	<g>
		<path style="fill:#076391;" d="M50.6,10c-0.9,0-1.6,0.7-1.6,1.6v8.1c0,0.9,0.7,1.6,1.6,1.6s1.6-0.7,1.6-1.6v-8.1
			C52.1,10.8,51.4,10,50.6,10z"/>
	</g>
</g>
<g>
	<g>
		<path style="fill:#076391;" d="M64.9,16.3c-0.6-0.6-1.6-0.6-2.2,0L56.9,22c-0.6,0.6-0.6,1.6,0,2.2c0.3,0.3,0.7,0.5,1.1,0.5
			s0.8-0.2,1.1-0.5l5.7-5.7C65.5,17.9,65.5,16.9,64.9,16.3z"/>
	</g>
</g>
<g>
	<g>
		<path style="fill:#076391;" d="M43.9,22l-5.7-5.7c-0.6-0.6-1.6-0.6-2.2,0c-0.6,0.6-0.6,1.6,0,2.2l5.7,5.7c0.3,0.3,0.7,0.5,1.1,0.5
			s0.8-0.2,1.1-0.5C44.5,23.6,44.5,22.6,43.9,22z"/>
	</g>
</g>
<g>
	<g>
		<circle style="fill:#076391;" cx="63.4" cy="52.3" r="1.6"/>
	</g>
</g>
</svg>
