<?xml version="1.0" encoding="utf-8"?>
<!-- Generator: Adobe Illustrator 23.0.1, SVG Export Plug-In . SVG Version: 6.00 Build 0)  -->
<svg version="1.1" id="Layer_1" xmlns="http://www.w3.org/2000/svg" xmlns:xlink="http://www.w3.org/1999/xlink" x="0px" y="0px"
	 width="100px" height="100px" viewBox="0 0 100 100" style="enable-background:new 0 0 100 100;" xml:space="preserve">
<path style="fill:#0C6391;" d="M50,60.8c0.9,0,1.6-0.7,1.6-1.6c0-0.9-0.7-1.6-1.6-1.6s-1.6,0.7-1.6,1.6C48.4,60.1,49.1,60.8,50,60.8
	z"/>
<path style="fill:#0C6391;" d="M58.8,48.6c3.7-2.3,6.8-5.5,9-9.2c2.1-3.7,3.2-7.9,3.2-12.2v-9c1.9-0.7,3.2-2.5,3.2-4.6v-3.2
	c0-0.9-0.7-1.6-1.6-1.6H27.4c-0.9,0-1.6,0.7-1.6,1.6v3.2c0,2.1,1.3,3.9,3.2,4.6v9c0,4.2,1.1,8.4,3.2,12.2c2.1,3.8,5.2,7,9,9.2
	c0.5,0.3,0.8,0.8,0.8,1.4c0,0.6-0.3,1.1-0.8,1.4c-3.7,2.3-6.8,5.5-9,9.2c-2.1,3.7-3.2,7.9-3.2,12.2v9c-1.9,0.7-3.2,2.5-3.2,4.6v3.2
	c0,0.9,0.7,1.6,1.6,1.6h45.1c0.9,0,1.6-0.7,1.6-1.6v-3.2c0-2.1-1.3-3.9-3.2-4.6v-9c0-4.2-1.1-8.4-3.2-12.2c-2.1-3.8-5.2-7-9-9.2
	C58.3,51.1,58,50.6,58,50C58,49.4,58.3,48.9,58.8,48.6z M30.7,15.2c-0.9,0-1.6-0.7-1.6-1.6V12h41.9v1.6c0,0.9-0.7,1.6-1.6,1.6H30.7z
	 M69.3,84.8c0.9,0,1.6,0.7,1.6,1.6V88H29.1v-1.6c0-0.9,0.7-1.6,1.6-1.6H69.3z M57.1,54.2c6.6,4,10.6,11,10.6,18.7v8.8H32.3v-8.8
	c0-7.7,4-14.6,10.6-18.7c1.4-0.9,2.3-2.4,2.3-4.2c0-1.7-0.9-3.3-2.3-4.2c-6.6-4-10.6-11-10.6-18.7v-8.8h35.4v8.8
	c0,7.7-4,14.6-10.6,18.7c-1.4,0.9-2.3,2.4-2.3,4.2C54.8,51.7,55.7,53.3,57.1,54.2z"/>
<path style="fill:#0C6391;" d="M58.5,69c-1.5-0.6-3.1-1.3-5-2.4c-0.9-0.5-1.6-1.2-2.2-2c-0.3-0.4-0.8-0.6-1.3-0.6c0,0,0,0,0,0
	c-0.5,0-1,0.2-1.3,0.6c-0.6,0.8-1.4,1.5-2.2,2c-1.8,1.1-3.5,1.8-4.9,2.4c-3.2,1.4-6,2.5-6,7v0.7c0,0.9,0.7,1.6,1.6,1.6h25.8
	c0.9,0,1.6-0.7,1.6-1.6V76C64.5,71.6,61.7,70.4,58.5,69z M38.8,75.1c0.2-1.5,1.3-2,4-3.1c1.5-0.6,3.3-1.4,5.4-2.6c0,0,0,0,0,0
	c0.7-0.4,1.3-0.9,1.8-1.4c0.5,0.5,1.1,1,1.8,1.4c0,0,0,0,0,0c2.1,1.2,3.9,2,5.4,2.7c2.7,1.2,3.7,1.7,4,3.1H38.8z"/>
<path style="fill:#0C6391;" d="M63.7,22.8c-0.5-0.3-1.1-0.3-1.6,0c-3.6,2.3-7.8,3.5-12,3.5c-4.3,0-8.4-1.2-12-3.5
	c-0.5-0.3-1.1-0.3-1.6,0c-0.5,0.3-0.8,0.8-0.8,1.4v3c0,2.8,1.1,5.8,3.1,8.7c2,2.8,4.7,5.3,7.9,7.2c0.7,0.4,1.3,1,1.9,1.7v8
	c0,0.9,0.7,1.6,1.6,1.6c0.9,0,1.6-0.7,1.6-1.6v-8c0.6-0.7,1.2-1.3,1.9-1.7c6.6-4,11-10.3,11-15.9v-3C64.5,23.6,64.2,23.1,63.7,22.8z
	 M61.3,27.2c0,4.4-3.9,9.8-9.4,13.1c0,0,0,0,0,0c-0.6,0.4-1.3,0.9-1.8,1.5c-0.6-0.6-1.2-1-1.8-1.4c0,0,0,0,0,0
	c-5.7-3.4-9.5-8.7-9.5-13.1v-0.2c3.5,1.7,7.4,2.6,11.3,2.6c3.9,0,7.8-0.9,11.3-2.6V27.2z"/>
</svg>
