<svg version="1.1" id="Layer_1" xmlns="http://www.w3.org/2000/svg" x="0" y="0" width="300" height="200" viewBox="0 0 300 200" xml:space="preserve"><path d="M150.7 143.1c-37 0-67.1-30.1-67.1-67.1 0-37 30.1-67.1 67.1-67.1S217.8 39 217.8 76c0 37.1-30.1 67.1-67.1 67.1z" fill="#ed1c24"/><path d="M150.7 143.1c-37 0-67.1-30.1-67.1-67.1 0-37 30.1-67.1 67.1-67.1 37 0 67.1 30.1 67.1 67.1 0 37.1-30.1 67.1-67.1 67.1z" fill="none" stroke="#ed1c24" stroke-width="1.2" stroke-miterlimit="22.926"/><path d="M217.1 76.1c0 36.6-29.7 66.3-66.4 66.3-36.6 0-66.3-29.7-66.3-66.3 0-36.6 29.7-66.3 66.3-66.3 36.7-.1 66.4 29.6 66.4 66.3" fill="#fff"/><path d="M199 30.6l-10.3 10.8-38.1 38.7-36.8-38-11.5-11.4c-11.1 11.9-18 27.8-18 45.4 0 36.6 29.7 66.3 66.3 66.3 36.6 0 66.4-29.7 66.4-66.3.1-17.6-6.8-33.6-18-45.5z" fill="#ed1c24"/><path d="M199 30.6l-10.3 10.8-38.1 38.7-36.8-38-11.5-11.4c-11.1 11.9-18 27.8-18 45.4 0 36.6 29.7 66.3 66.3 66.3 36.6 0 66.4-29.7 66.4-66.3.1-17.6-6.8-33.6-18-45.5z" fill="none" stroke="#ed1c24" stroke-width=".181" stroke-miterlimit="22.926"/><path d="M124.6 19.1l.1.2c-.3.2-.4.5-.5.8-.1.3-.1.8 0 1.6l.4 7-.2.1-5.6-4.6c-.7-.6-1.1-.9-1.3-.9-.2-.1-.4-.1-.7.1l-.1-.2 3.6-1.8.1.2-.1.1c-.3.2-.5.3-.6.5-.1.1-.1.2 0 .3 0 .1.1.1.2.2s.3.3.7.6l3.5 2.9-.2-4.1c0-.5-.1-.8-.1-1 0-.2-.1-.3-.1-.4-.1-.1-.1-.2-.2-.2-.1-.1-.2-.1-.4-.1s-.4.1-.7.2l-.1-.2 2.3-1.3zm6 4.5l-2.8 1-.1.9c0 .3 0 .5.1.7.1.2.2.3.4.4.1 0 .4 0 .8-.1l.1.2-2.6.9-.1-.2c.3-.1.5-.3.6-.6.1-.3.2-.7.3-1.4l.6-7.3h.1l5.2 5.5c.5.5.8.8 1.1.9.2.1.4.1.6 0l.1.2-3.8 1.4-.1-.2.2-.1c.3-.1.5-.2.6-.4.1-.1.1-.2 0-.3 0-.1-.1-.1-.1-.2 0 0-.1-.2-.3-.4l-.9-.9zm-.4-.4l-2.1-2.3-.3 3.2 2.4-.9zm.4 3.6c.3-.1.5-.1.8 0 .3.1.4.3.5.6.1.3.1.5 0 .8-.1.3-.3.4-.6.5-.3.1-.5.1-.8 0-.3-.1-.4-.3-.5-.6-.1-.3-.1-.5 0-.8.1-.2.3-.4.6-.5zm5.8-11.1l5.1 4.3-.7-3.6c-.1-.5-.2-.8-.4-1-.2-.2-.6-.2-1-.1v-.2l2.7-.5v.2c-.3.1-.6.2-.7.3-.1.1-.2.2-.2.4s0 .5.1.8l1.3 6.9h-.2l-6.9-5.8 1 5.3c.1.5.3.8.5.9.3.1.5.2.8.1h.2v.2l-2.9.6v-.2c.5-.1.8-.2.9-.5.1-.2.2-.5.1-1L135 17l-.2-.2c-.2-.2-.4-.3-.5-.3h-.6v-.2l2.7-.6zm15.7 2.1l2.2 3.5c.4.6.6.9.8 1.1.2.1.4.2.6.2v.2l-4.1-.1v-.2c.3 0 .5-.1.6-.1.1-.1.1-.2.1-.3v-.2c-.1-.1-.2-.4-.4-.7l-1.2-1.9-1.3 1.5c-.4.5-.6.8-.6 1 0 .1 0 .2.1.3.1.1.2.2.4.2h.5v.2l-3.2-.1v-.2c.4 0 .7-.1.9-.3.3-.2.7-.6 1.2-1.2l1.7-2-2.1-3.2c-.3-.5-.5-.8-.6-.9-.1-.1-.2-.3-.3-.3-.1-.1-.3-.1-.4-.1V14l4.2.1v.2h-.2c-.2 0-.4 0-.5.1-.1.1-.1.2-.2.3v.2l.4.7 1 1.6.9-1.1c.5-.5.7-.9.7-1.2 0-.1 0-.2-.1-.3-.1-.1-.2-.2-.3-.2-.1-.1-.3-.1-.6-.1v-.2l3.1.1v.2c-.2 0-.4 0-.6.1-.2 0-.3.2-.5.3-.1.1-.4.4-.8.9l-1.4 2.1zm5.3-3.2l4.3.8v.2h-.2c-.3-.1-.5-.1-.7 0-.1 0-.2.1-.3.2-.1.1-.2.4-.2.9l-.8 4c-.1.7-.2 1.2-.1 1.5.1.3.2.5.4.7.2.2.5.3.9.4.4.1.9.1 1.2-.1.4-.1.6-.4.9-.7.2-.3.4-.9.6-1.8l.6-3.4c.1-.4.1-.6 0-.8 0-.2-.1-.3-.2-.4-.2-.1-.4-.2-.7-.3v-.2l2.9.5v.2h-.8c-.2.1-.3.2-.4.4-.1.1-.1.3-.2.7l-.6 3.1c-.2 1-.4 1.7-.6 2.1-.2.4-.6.7-1.2 1-.6.3-1.3.3-2.1.2-.7-.1-1.2-.3-1.6-.6-.5-.4-.8-.8-.9-1.2-.1-.4-.1-1 0-1.7l.8-4c.1-.5.1-.8.1-.9 0-.1-.1-.2-.2-.3-.1-.1-.4-.2-.7-.2l-.2-.3zm12.8 9.4l-2.8-1-.6.7c-.2.2-.3.4-.4.6-.1.2 0 .4.1.6.1.1.3.2.7.4l-.1.2-2.6-.9.1-.2c.3.1.6 0 .8-.1.3-.1.6-.5 1.1-1l5.1-5.3h.1l.6 7.5c.1.7.1 1.2.3 1.4.1.2.3.3.5.4l-.1.2-3.8-1.4.1-.2.2.1c.3.1.5.1.7.1.1 0 .2-.1.2-.2v-.7l-.2-1.2zm-.1-.5l-.2-3.2-2.2 2.3 2.4.9zm3-7.9l.4 2.6-.5-.2-1-1.7-1.8.7-.5-.2 2-1.8 1.4.6zm6.5 5.9l1.2 6.6 1.7-3.2c.2-.5.3-.8.3-1-.1-.3-.3-.6-.7-.8l.1-.2 2.5 1.3-.1.2c-.3-.1-.6-.2-.7-.2-.1 0-.3.1-.4.2-.1.1-.3.3-.5.7l-3.3 6.2-.2-.1-1.7-8.9-2.5 4.7c-.2.4-.3.8-.2 1 .1.3.3.5.5.6l.2.1-.1.2-2.6-1.4.1-.2c.4.2.7.3 1 .2.3-.1.5-.3.7-.7l2.8-5.2-.1-.3c-.1-.3-.1-.5-.2-.6-.1-.1-.2-.3-.5-.4l.1-.2 2.6 1.4z" fill="#ed1c24"/><path d="M208.1 85c0 31.7-25.7 57.4-57.4 57.4S93.3 116.7 93.3 85s25.7-57.4 57.4-57.4 57.4 25.7 57.4 57.4" fill="#fff"/><path fill="#ed1c24" d="M150.7 79.9l-31 31 31 31.5 30.3-31z"/><path d="M208.1 85v-1.8l-57.4 59.2c31.7 0 57.4-25.7 57.4-57.4M93.3 85c0 31.7 25.7 57.4 57.4 57.4L93.4 83.2c-.1.6-.1 1.2-.1 1.8m57.4-57.4c-14.3 0-27.4 5.2-37.4 13.9l37.4 38.3L188.5 42l.1-.1c-10.1-8.9-23.4-14.3-37.9-14.3" fill="#00628f"/><path d="M208.2 16.7h1.3c.8 0 1.3 0 1.5-.1.2-.1.4-.2.5-.4.1-.2.2-.4.2-.6 0-.3-.1-.5-.2-.7-.2-.2-.4-.3-.6-.3h-2.6v2.1zm-1.7 4.9V13h3.6c.9 0 1.6.1 2 .2.4.2.7.4 1 .8.2.4.4.8.4 1.3 0 .6-.2 1.2-.6 1.6-.4.4-.9.7-1.7.8.4.2.7.5.9.7.3.3.6.7 1 1.4l1 1.7H212l-1.2-1.9c-.4-.7-.7-1.1-.9-1.2-.2-.2-.3-.3-.5-.4-.2-.1-.5-.1-.9-.1h-.3v3.6h-1.7zm3-11.4c3.9 0 7.1 3.2 7.1 7.1 0 3.9-3.2 7.1-7.1 7.1-3.9 0-7.1-3.2-7.1-7.1 0-3.9 3.2-7.1 7.1-7.1zm0-1.2c4.6 0 8.3 3.7 8.3 8.3 0 4.6-3.7 8.3-8.3 8.3s-8.3-3.7-8.3-8.3c0-4.6 3.7-8.3 8.3-8.3z" fill-rule="evenodd" clip-rule="evenodd" fill="#ed1c24"/><path d="M34.9 162.9h4.5l-7.1 22.5h-4.1l-7-22.5h4.7l4.5 17 4.5-17zM47 180.7l-1.4 4.6H41l7.4-22.5h5.1l7.3 22.5h-4.7l-1.3-4.6H47zm1.2-3.9h5.4l-2.6-8.9-2.8 8.9zm4.5 10.4v3.6H49v-3.6h3.7zm23.8-24.3h4.1v22.5h-4.4l-8.5-16-.1 16h-4.1v-22.5h4.6l8.2 15.7.2-15.7zm22.8 10.7l6.8 11.7h-5.3l-4-7.7-4.2 7.7h-5.1l6.7-11.5-6.3-10.9h5.2l3.7 7.3 3.8-7.3h5l-6.3 10.7zm26.8-10.7v14.6c0 2.9-.8 5.1-2.3 6.5-1.5 1.4-3.6 2-6.3 2-1.2 0-2.3-.2-3.3-.5-1.4-.5-2.5-1.2-3.3-2.2-1.1-1.4-1.6-3.2-1.6-5.5v-14.9h4.5v14.6c0 1.5.4 2.6 1.1 3.4.7.8 1.6 1.1 2.7 1.1 1.4 0 2.5-.4 3.2-1.1.7-.7 1-1.8 1-3.2v-14.8h4.3zm8.3 17.8l-1.4 4.6h-4.6l7.4-22.5h5.1l7.3 22.5h-4.7l-1.3-4.6h-7.8zm5.7-24.7l3.3 4.6h-3.3l-1.9-2.6-1.9 2.6h-3.2l3.3-4.6h3.7zm-4.5 20.8h5.4l-2.6-8.9-2.8 8.9zm28.3-13.9h4.1v22.5h-4.4l-8.5-16-.1 16h-4v-22.5h4.6l8.2 15.7.1-15.7zm21.8 14.1v-3.8h8.7v12.2h-2.9l-.5-2.8c-.9 1-1.6 1.8-2.2 2.2-1.2.8-2.6 1.2-4.3 1.2-2.7 0-4.9-1-6.7-2.9-2-2.2-2.9-5.1-2.9-8.9 0-3.3.8-6.1 2.5-8.2 1.9-2.4 4.4-3.7 7.8-3.7 2.9 0 5.2.9 6.9 2.6 1.5 1.5 2.2 3.1 2.2 4.9h-4.4c0-.6-.4-1.4-1.1-2.2-.9-1-2.1-1.5-3.4-1.5-1.7 0-3.1.6-4.2 1.9-1.2 1.4-1.8 3.5-1.8 6.2 0 2.8.6 4.9 1.9 6.2 1 1.1 2.4 1.6 4.1 1.6 1.3 0 2.4-.4 3.3-1.3.9-.9 1.5-2.1 1.8-3.6h-4.8zm13.7 8.3v-22.5H210c2.4 0 4.2.8 5.3 2.4.8 1.2 1.2 2.5 1.2 3.9 0 1.3-.3 2.4-.9 3.4-.6 1-1.4 1.6-2.4 2 1 .5 1.6 1 2 1.6.5.8.7 2.2.7 4.1 0 1.6 0 2.6.1 3.2 0 .6.3 1 .9 1.2v.6H212c-.2-.6-.3-1.2-.3-1.8-.1-.6-.1-1.6-.1-2.7 0-1.7-.2-2.8-.5-3.3-.4-.7-1.4-1-2.9-1h-4.5v8.8h-4.3zm4.3-12.6h5.1c1.2 0 2-.2 2.5-.7.5-.5.8-1.3.8-2.3 0-.8-.2-1.4-.6-1.9-.5-.7-1.3-1-2.5-1h-5.4v5.9zm16.6 1.4c0-3.2.7-5.8 2-7.7 1-1.6 2.4-2.7 4.2-3.4 1.3-.5 2.6-.7 3.9-.7 1.3 0 2.6.2 3.8.7 1.8.7 3.2 1.8 4.2 3.3 1.3 2 2 4.5 2 7.8 0 3.2-.7 5.8-2 7.8-1 1.5-2.4 2.7-4.2 3.4-1.3.5-2.5.8-3.8.8-1.3 0-2.6-.2-3.8-.7-1.8-.7-3.2-1.8-4.2-3.4-1.4-2.1-2.1-4.7-2.1-7.9zm4.4 0c0 2.8.6 4.9 1.9 6.3 1 1 2.2 1.6 3.8 1.6 1.5 0 2.7-.5 3.7-1.6 1.3-1.4 1.9-3.5 1.9-6.3s-.6-4.9-1.9-6.3c-1-1-2.2-1.6-3.7-1.6s-2.7.5-3.7 1.6c-1.4 1.4-2 3.5-2 6.3zm35.1-11.2v14.6c0 2.9-.8 5.1-2.3 6.5-1.5 1.4-3.6 2-6.3 2-1.2 0-2.3-.2-3.3-.5-1.4-.5-2.5-1.2-3.3-2.2-1.1-1.4-1.6-3.2-1.6-5.5v-14.9h4.5v14.6c0 1.5.4 2.6 1 3.4.7.8 1.6 1.1 2.7 1.1 1.4 0 2.5-.4 3.2-1.1.7-.7 1-1.8 1-3.2v-14.8h4.4zm8.8 14.3v8.1h-4.4v-22.5h9.5c2 0 3.6.6 4.8 1.9 1.2 1.3 1.7 3 1.7 5.3 0 1.6-.4 3-1.2 4.3-1.2 1.9-3 2.8-5.5 2.8h-4.9zm0-3.9h4.1c1.4 0 2.3-.5 2.9-1.4.3-.5.4-1.2.4-2.1 0-1.1-.3-1.9-.9-2.3-.6-.5-1.6-.7-2.9-.7h-3.5v6.5z" fill="#00628f"/></svg>